<?xml version="1.0" encoding="UTF-8"?><svg id="_イヤー_2" xmlns="http://www.w3.org/2000/svg" viewBox="0 0 136.98 120.31"><defs><style>.cls-1{fill:#f8d28a;}.cls-2{fill:#fff;}.cls-3{fill:#ee8762;}.cls-4{fill:#c4e2ee;}.cls-5{fill:#231815;}.cls-6{fill:#595757;}.cls-7{fill:#604b4c;}.cls-8{fill:#5f4a4b;}.cls-9{opacity:.8;}</style></defs><g id="quokka_pc"><g><g id="_り"><g id="_塗り"><path class="cls-2" d="M41.36,26c1.35-5.58,3.4-10.99,6.03-16.1,1.29-2.51,2.8-5.03,5.15-6.58s5.77-1.83,7.85,.07c1.27,1.16,1.83,2.87,2.64,4.39s2.14,3.01,3.86,3.02c.88,0,1.71-.38,2.58-.5,1.17-.16,2.35,.18,3.48,.53,3.82,1.19,7.59,2.53,11.3,4.02,4.46-2.18,9.04-4.11,13.72-5.77,2.87-1.02,6.44-1.81,8.67,.27,.91,.85,1.4,2.04,1.84,3.2,1.79,4.76,3.07,9.77,3.04,14.86s-1.44,10.26-4.57,14.26c-1.14,1.46-2.55,2.87-2.87,4.7-.32,1.86,.56,3.68,1.09,5.49,2.28,7.78-1.92,15.78-4.91,23.32-.64,1.61-1.23,3.29-1.24,5.02-.01,2.31,1.01,4.48,2.01,6.56l6.31,13.13,1.22,.53"/><path class="cls-2" d="M108.06,98.63c8.94-1.68,17.18-6.88,22.54-14.23,1.69-2.32,3.51-5.1,6.37-5.38-1.79,6.15-5.04,11.87-9.41,16.56-4.43,4.77-9.92,8.41-15.38,11.95-4.89,3.17-9.85,6.33-15.32,8.34-6.1,2.24-12.63,2.96-19.09,3.68-4.39,.48-9.57,.66-12.36-2.76-.47-.57-.86-1.25-1.51-1.6-.88-.48-1.95-.26-2.93-.06-6.56,1.35-13.32,1.27-20.02,1.18-5.28-.07-11.74-.9-13.74-5.79-.67-1.63-.66-3.51,0-5.14,1.97,1.1,4.31,1.52,6.55,1.18l-3.87-12.04c7.48-3.27,15.99-2.6,24.15-2.31s16.92-.04,23.53-4.83l-12.75-4c-1.07-.34-2.19-.7-3.01-1.47-1.14-1.07-1.49-2.7-1.85-4.21-1.58-6.64-4.44-13.12-9.2-18.02s-11.59-8.03-18.38-7.34c-1.51,.15-3.28,.41-4.34-.68-.58-.6-.78-1.46-.94-2.28-.57-2.89-1-5.88-.42-8.77s2.3-5.69,4.65-6.18c2.72-4.8,7.59-8.32,12.99-9.41"/></g><g id="_オッカ"><path class="cls-1" d="M82.17,15.68c-8.66-6.06-21.37-6.44-29.52,.29-3.49,2.88-6.02,6.82-9.64,9.53-3.32,2.49-7.38,3.81-10.85,6.09s-6.48,6.14-5.8,10.24c.75,4.53,5.4,7.09,8.94,10.02,4.96,4.1,8.27,9.81,12.22,14.9s9.1,9.86,15.48,10.71c3.94,.52,7.91-.52,11.68-1.79,5.41-1.82,10.65-4.13,15.64-6.9,4.26-2.36,8.45-5.15,11.23-9.15s3.91-9.45,1.75-13.82c-.48-.97-1.13-2-.85-3.05,.25-.93,1.14-1.5,1.91-2.08,6.1-4.56,7.13-13.47,5.4-20.89-.93-4-3.05-8.35-7.04-9.33-4.03-.99-7.84,1.89-11.54,3.78-2.69,1.37-5.62,2.26-8.61,2.62,3.02-2.86,6.58-5.16,10.43-6.75"/><path class="cls-1" d="M44.66,24.02c-.95-3.05,.68-6.25,2.26-9.02,1.48-2.6,2.96-5.21,4.57-7.73,.5-.78,1.04-1.59,1.85-2.02,1.37-.74,3.14-.2,4.28,.85s1.79,2.53,2.41,3.95c.23,.53,.45,1.16,.14,1.64-.16,.26-.45,.41-.72,.55-5.66,3.02-10.78,7.05-15.05,11.83"/><path class="cls-1" d="M102.41,56.49c.5,5.5-.64,11.15-3.23,16.03-2.08,3.91-5.17,8.26-3.41,12.32,.5,1.15,1.35,2.11,2.15,3.07,3.6,4.37,6.36,9.43,8.09,14.82,.44,1.37,.82,2.88,.33,4.24-.42,1.18-1.42,2.05-2.42,2.78-8.04,5.89-18.63,6.61-28.58,7.13-3.07,.16-6.32,.28-9.05-1.15-1.69-.89-3.19-2.37-5.09-2.47-2-.11-3.7,1.33-5.59,2-3.16,1.11-6.62-.01-9.96-.29-4.08-.34-8.22,.59-12.24-.16-2.9-.54-5.83-2.48-6.97-5.03-.67-1.49,.45-3.18,2.09-3.18h0c1.47,0,2.58-1.38,2.21-2.8-.57-2.17-.88-4.42-.93-6.66-.02-1.1,.13-2.4,1.09-2.96,.64-.37,1.44-.27,2.17-.17,12.55,1.7,25.27-.18,37.79-2.06,1.55-.23,3.12-.47,4.61-.92,1.62-.49,2.17-2.53,.99-3.75-3.01-3.09-8.15-4.1-12.64-4.94-1.13-.21-2.35-.49-3.04-1.4-.42-.55-.58-1.26-.73-1.94l-1.39-6.39"/><path class="cls-1" d="M111.04,106.87c-.55-2.7-2.9-5.34-1.76-7.83,.56-1.22,1.84-1.92,3.1-2.24s2.59-.35,3.86-.66c2.09-.52,3.92-1.79,5.63-3.12,4.95-3.83,9.41-8.35,13.22-13.39-1.2,4.82-4.6,8.67-7.88,12.3-4.86,5.38-9.88,10.87-16.28,14.09,2.6,.46,5.12-1.19,7.03-3.08s3.6-4.13,5.96-5.35"/><path class="cls-8" d="M31.13,114.46c-2.8-1.08-4.74-4.09-4.56-7.09,.03-.54,.16-1.13,.59-1.46,.8-.61,1.92,.07,2.67,.75,1.28,1.16,2.54,2.37,3.4,3.87,.43,.74,.76,1.57,.72,2.43-.04,.96-.63,1.92-1.54,2.23s-2.06-.22-2.27-1.15"/><path class="cls-8" d="M67.05,117.53c-1.3-1.84-2.35-3.84-3.14-5.95-.54-1.46-.96-3.06-.6-4.58s1.7-2.91,3.26-2.82c1.47,.08,2.56,1.34,3.47,2.5,.99,1.26,1.99,2.54,2.7,3.99,.33,.67,.6,1.4,.57,2.15-.03,1.01-.59,1.92-1.18,2.74-.67,.92-1.47,1.83-2.56,2.14s-2.49-.29-2.65-1.41"/><path class="cls-8" d="M112.42,107.76c-1.49-1.33-2.62-3.05-3.28-4.94-.25-.71-.41-1.53-.03-2.17,.29-.48,.83-.75,1.33-1.01,9.63-4.77,18.23-11.61,25.06-19.92,.7,4.11-2.09,7.91-4.72,11.14-5.45,6.7-11.24,13.66-19.23,16.97"/><path class="cls-8" d="M80.03,85.68l-.28,6.7c0,.2-.02,.42-.16,.58-.14,.16-.38,.2-.59,.23-1.2,.15-2.43,.31-3.59-.03s-2.22-1.3-2.29-2.5c-.07-1.31,1.01-2.39,2.11-3.11,1.22-.8,2.58-1.4,4-1.77"/></g><g id="PC"><g><path class="cls-4" d="M9.27,98.09c-4.25-10.69-6.9-22.06-7.82-33.58-.11-1.39-.16-2.93,.67-4.04,.74-.98,1.98-1.37,3.14-1.69,10.73-2.94,21.78-4.6,32.88-4.93,1.62-.05,3.27-.07,4.82,.39,3.26,.96,5.63,3.83,7.49,6.76,5.2,8.16,10.45,19.72,10.48,29.49,0,.86-1.42-.23-2.02,.35-.59,.57-2.54,.81-3.35,.8-15.93-.25-31.89,1.81-47.26,6.11"/><path class="cls-4" d="M61.42,83.51s11.29,.83,11.59,3.78c.35,3.37-12.61,4.97-12.61,4.97"/></g><path class="cls-3" d="M31.5,66.49c-2.01-.64-2.94-.3-4.75,.7-1.85,1.02-1.58,2.18-4.29,3.21-1.65,.63-1.66,.56-2.1,.67-1.68,.44-2.9,1.86-3.2,3.39-.31,1.53,.21,3.12,1.16,4.43,1.59,2.19,5.21,3.63,8.15,3.66,3.24,.04,5.35-1.91,6.84-4.59,.28-.51,.5-1.04,.67-1.58,.63-1.98,1.43-3.94,.94-6.04-.39-1.67-1.61-3.28-3.44-3.84"/></g></g><g id="_画"><g id="quokka"><path class="cls-5" d="M47.22,48.8c.34-.29,.67-.59,1-.89l-.3,.26c.19-.17,.39-.33,.61-.48l-.31,.2c.08-.05,.16-.1,.24-.14,.17-.09,.32-.2,.46-.33,.16-.13,.29-.27,.41-.43,.11-.14,.2-.29,.27-.46,.07-.13,.11-.27,.12-.42l-.02-.23c-.04-.14-.14-.24-.28-.28l-.23-.02c-.2,.02-.39,.09-.57,.19-.77,.41-1.39,1.03-2.04,1.6l.3-.26s-.08,.07-.12,.1c-.3,.25-.58,.52-.76,.87-.08,.13-.14,.28-.16,.43-.04,.12-.04,.24,0,.37l.1,.18c.12,.1,.26,.14,.41,.12l.27-.06c.22-.08,.42-.19,.6-.33h0Z"/><path class="cls-5" d="M70.15,54.25c.3,.36,.57,.75,.83,1.14,.08,.08,.18,.12,.3,.11,.13,.02,.26,0,.39-.05,.16-.05,.31-.13,.45-.23,.17-.1,.32-.22,.45-.36l.26-.3c.14-.18,.25-.39,.33-.6l.06-.27c.02-.16-.02-.29-.12-.41-.26-.39-.52-.78-.83-1.14-.08-.08-.18-.12-.3-.11-.13-.02-.26,0-.39,.05-.16,.05-.31,.13-.45,.23-.17,.1-.32,.22-.45,.36l-.26,.3c-.14,.18-.25,.39-.33,.6-.07,.23-.11,.48,.06,.69h0Z"/><g class="cls-9"><path class="cls-5" d="M94.91,20.75c2.06-1.62,4.6-2.42,7.09-3.25,.49-.16,.97-.63,1.12-1.12,.14-.43-.12-.71-.56-.56-2.81,.94-5.63,1.89-7.99,3.75-.32,.25-.85,.79-.7,1.26s.82,.11,1.04-.07h0Z"/></g><path class="cls-5" d="M47.58,47.96c.78,1.83,2.86,3.28,4.48,4.33,1.97,1.28,4.16,2.22,6.44,2.78,4.16,1.02,9.03,1.27,12.73-1.2,.41-.28,1.17-1.11,.93-1.68-.26-.62-1.05-.14-1.39,.09-1.46,.98-3.46,1.12-5.17,1.13-1.99,0-3.98-.29-5.89-.81-2.06-.56-4.07-1.43-5.83-2.63-1.35-.92-3.31-2.23-3.97-3.77-.45-1.06-2.72,.85-2.33,1.76h0Z"/><path class="cls-5" d="M69.18,46.52c-1.76-1.15-2.52-3.24-1.95-5.26,.12-.43,.31-.85,.64-1.15s.83-.43,1.24-.24c.18,.09,.33,.23,.47,.37,.7,.72,1.34,1.54,1.64,2.5s.23,2.08-.38,2.88c-.31,.41-.74,.71-1.22,.87-.3,.1-.78-.03-.69-.33"/><path class="cls-5" d="M49.65,42.47c1.91-.88,2.91-2.78,2.64-4.86-.06-.44-.18-.89-.47-1.23s-.76-.55-1.19-.42c-.19,.06-.36,.18-.51,.3-.8,.61-1.54,1.33-1.98,2.24s-.53,2.02-.04,2.9c.25,.45,.63,.81,1.08,1.04,.28,.14,.78,.09,.73-.23"/><g class="cls-9"><path class="cls-8" d="M60.93,77.21c2.81,.06,5.65,0,8.44-.4s5.69-1.04,7.84-2.86c.29-.25,.89-.81,.7-1.26s-.8-.14-1.04,.07c-1.92,1.62-4.75,2.06-7.17,2.36-2.58,.31-5.19,.37-7.79,.31-.71-.02-2,1.75-.97,1.78h0Z"/></g><path class="cls-7" d="M42.44,22.64c1.67-6.83,4.15-14.25,9.85-18.8,1.49-1.19,3.51-2.74,5.49-1.76,.96,.47,1.73,1.44,2.39,2.26,1.67,2.07,3.18,4.42,4.25,6.86,.35,.79,2.05-.64,1.75-1.32-.93-2.1-2.19-4.11-3.52-5.96S59.75-.11,57.28,0c-2.99,.13-5.89,2.87-7.82,4.93-2.19,2.34-3.92,5.07-5.26,7.98-1.52,3.3-2.59,6.77-3.45,10.29-.3,1.23,1.51,.14,1.69-.56h0Z"/><path class="cls-7" d="M26.96,40.67c.71-4.62,4.78-8.33,8.49-10.78,1.92-1.27,4.04-2.14,6.08-3.19s4.19-2.36,6-3.93,3.12-3.35,4.73-4.99c1.44-1.47,3.01-2.83,4.77-3.91,3.52-2.16,7.55-2.9,11.64-2.83,5.35,.09,10.75,.92,14.5,5.07,.51,.57,2.13-1,1.59-1.59-3.48-3.85-8.2-4.85-13.17-5.17-4.56-.3-9.12,.22-13.23,2.35s-7.02,5.63-10.23,8.97c-3.74,3.88-8.99,5.26-13.33,8.25s-8.78,7.36-9.61,12.74c-.08,.53,.56,.39,.83,.26,.46-.22,.87-.73,.95-1.23h0Z"/><path class="cls-7" d="M85.21,15.9c3.6-2.8,7.79-4.97,12.08-6.5,2.9-1.03,7.08-2.54,9.41,.32,1.08,1.33,1.65,3.06,2.19,4.66s1,3.36,1.36,5.08c.79,3.78,1.15,7.68,.8,11.53-.38,4.2-1.68,8.44-4.85,11.38-.99,.92-.19,1.71,.8,.8,6.26-5.79,6.67-15.2,5.37-23.09-.62-3.76-1.52-8.1-3.62-11.34s-5.74-2.59-8.93-1.66c-5.32,1.54-10.56,4.23-14.93,7.63-.28,.22-.91,.84-.7,1.26s.77,.15,1.04-.07h0Z"/><path class="cls-7" d="M78.57,85.76c-1,.21-1.94,.61-2.83,1.11-1.06,.6-2.11,1.38-2.82,2.38-.62,.88-1.05,2.01-.5,3.03,.52,.96,1.55,1.29,2.57,1.41,1.2,.14,2.4,.05,3.6,.02,.5-.01,1.01-.53,1.23-.95,.17-.32,.25-.84-.26-.83-.9,.02-1.79,.09-2.69,.05-.77-.03-1.81-.16-2.4-.67-.3-.26-.44-.54-.52-.94,0,0-.02-.19-.01-.09s0-.09,0-.08c0-.08,.02-.15,.02-.23,0-.18-.04,.12,0,0,.01-.05,.03-.09,.04-.14,.01-.04,.03-.07,.04-.11,.05-.18-.09,.16,0,0,.03-.04,.05-.09,.07-.14,.06-.11,.12-.08-.03,.04,.07-.05,.12-.17,.17-.23,.16-.21-.17,.18,.04-.05,.09-.09,.18-.18,.27-.27,.11-.11,.13-.02-.04,.03,.03,0,.09-.08,.11-.09,.08-.07,.17-.14,.26-.2s.18-.13,.27-.19c.01,0,.22-.14,.07-.05s.08-.05,.1-.06c.22-.13,.44-.26,.67-.38,.13-.07,.25-.13,.38-.19,.04-.02,.08-.04,.13-.06-.23,.11-.01,0,.03,0,.21-.09,.43-.17,.65-.24,.09-.03,.18-.06,.27-.08,.06-.02,.4-.1,.14-.04,.52-.11,.98-.47,1.23-.95,.13-.25,.27-.94-.26-.83h0Z"/><path class="cls-7" d="M28.74,100.01c.66,3.01,2.08,5.79,2.65,8.82l1.67-1.46c-1.59-.98-3.61-2.32-5.57-2.15-2.51,.22-3.14,2.98-2.59,5.02,.73,2.7,2.97,5.73,5.65,6.74,1.87,.7,4.16,.71,6.14,.69,2.22-.01,4.44-.23,6.66-.34,2.53-.13,4.96,.18,7.47,.39s5-.3,7.55-.44c.71-.04,1.97-1.83,.97-1.78-2.36,.13-4.64,.63-7.01,.48s-4.54-.54-6.84-.48-4.43,.29-6.65,.36-4.84,.16-6.98-.64c-2.75-1.03-5.6-4.88-5.42-7.88,.03-.56,.25-.46-.16-.32,.22-.07,.48-.05,.7-.03,.51,.05,1.01,.23,1.49,.41,1.05,.4,2.03,.96,2.98,1.55,.69,.42,1.8-.78,1.67-1.46-.57-3.03-1.99-5.81-2.65-8.82-.17-.77-1.91,.57-1.75,1.32h0Z"/><path class="cls-7" d="M65.84,115.1c-1.84-2.71-3.88-6.37-1.46-9.4,1.85-2.31,4.42,.93,5.38,2.45,.74,1.16,1.34,2.43,2.18,3.53,.44,.58,2.09-.94,1.59-1.59-1.67-2.19-2.61-5.56-5.36-6.68-3.71-1.51-6.78,3.63-6.69,6.75,.07,2.46,1.43,4.57,2.77,6.54,.4,.58,2.06-.9,1.59-1.59h0Z"/><path class="cls-7" d="M68.56,119.94c7.66,1.11,15.19-.53,22.71-1.85,5.7-1,11.23-2.25,14.65-7.37,.84-1.25-.59-1.24-1.19-.34-3.18,4.77-8.86,5.27-14.05,6.22-6.86,1.26-13.82,2.61-20.8,1.6-.76-.11-2.07,1.64-1.32,1.75h0Z"/><path class="cls-7" d="M104.63,50.36c1.68,7.77-1.49,15.46-4.41,22.5-1.29,3.11-2.07,6.4-.92,9.69,1.4,3.99,3.14,7.87,4.59,11.84,1.56,4.27,3.78,8.5,3.9,13.13,.02,1.02,1.79-.26,1.78-.97-.1-3.96-1.63-7.52-3.05-11.15-1.56-3.98-3-8-4.59-11.97-.76-1.9-1.52-3.7-1.43-5.78,.08-1.8,.66-3.51,1.34-5.16,1.43-3.5,2.91-6.88,3.84-10.56,1.06-4.2,1.63-8.6,.7-12.88-.17-.77-1.91,.57-1.75,1.32h0Z"/><path class="cls-7" d="M113.59,99.16c9.12-4.68,16.77-12.06,22.99-20.11l-1.47,.49c.34,1.9-.34,3.88-1.14,5.58-1.11,2.36-2.62,4.53-4.24,6.58-3.5,4.44-7.62,8.49-12.12,11.93-1.75,1.34-3.63,2.73-5.7,3.52-.46,.17-1.01,.62-1.12,1.12-.09,.41,.09,.74,.56,.56,4.74-1.8,8.91-5.66,12.52-9.1,4.38-4.17,8.73-8.93,11.43-14.4,1.07-2.17,2-4.66,1.56-7.11-.13-.73-1.32,.3-1.47,.49-5.87,7.6-13.08,14.55-21.68,18.97-.74,.38-1.42,2.16-.12,1.49h0Z"/><path class="cls-5" d="M25.64,45.9c.94,0,2.66-2.37,1.3-2.37-.94,0-2.66,2.37-1.3,2.37h0Z"/><path class="cls-5" d="M26.53,48.76c.94,0,2.66-2.37,1.3-2.37-.94,0-2.66,2.37-1.3,2.37h0Z"/><path class="cls-8" d="M110.54,99.43c.94,0,2.66-2.37,1.3-2.37-.94,0-2.66,2.37-1.3,2.37h0Z"/><path class="cls-8" d="M108.39,98.19l-.14,.14c-.14,.13-.26,.29-.36,.45-.1,.14-.18,.29-.23,.45-.06,.13-.07,.26-.05,.39,0,.11,.03,.21,.11,.3l.18,.1c.17,.04,.34,.02,.51-.04l.3-.13c.22-.13,.43-.28,.61-.46l.14-.14c.14-.13,.26-.29,.36-.45,.1-.14,.18-.29,.23-.45,.06-.13,.07-.26,.05-.39,0-.11-.03-.21-.11-.3l-.18-.1c-.17-.04-.34-.02-.51,.04l-.3,.13c-.22,.13-.43,.28-.61,.46h0Z"/><path class="cls-5" d="M58.52,44.44c-.04-.25-.08-.5-.12-.75l.05,.4c-.04-.33-.08-.66-.11-.98l-1.1,1.45s.08-.01,.13-.02l-.4,.05c.35-.04,.7-.05,1.05,0l-.4-.05c.15,.02,.3,.05,.44,.11l-.36-.15c.06,.03,.12,.06,.17,.1l-.3-.23s.06,.05,.08,.08l-.23-.3s.03,.05,.05,.08l-.15-.36s.02,.06,.03,.1l-.05-.4s0,.09,0,.14l.05-.4c0,.05-.02,.11-.05,.16l.15-.36c-.04,.1-.1,.18-.16,.27l.23-.3c-.16,.21-.37,.38-.57,.54l.3-.23c-.27,.21-.55,.39-.85,.56-.33,.19-.59,.54-.69,.9-.06,.2-.07,.4-.03,.6,0,.2,.07,.39,.18,.56,.21,.32,.51,.6,.9,.69s.8,.05,1.16-.15c.27-.16,.54-.32,.79-.51,.49-.37,.95-.74,1.27-1.27,.1-.17,.17-.35,.24-.54s.09-.39,.08-.59c-.02-.5-.2-.99-.56-1.34-.52-.5-1.19-.64-1.88-.7-.47-.04-.95,0-1.41,.1l-.36,.15c-.17,.09-.32,.22-.42,.39-.09,.09-.16,.2-.19,.33-.09,.18-.14,.37-.13,.58,.06,.71,.15,1.43,.28,2.13,.05,.2,.14,.37,.27,.51,.11,.16,.25,.29,.42,.39,.17,.11,.36,.17,.56,.18,.2,.04,.4,.04,.6-.03,.36-.12,.71-.34,.9-.69l.15-.36c.07-.27,.07-.53,0-.8h0Z"/></g><g id="PC-2"><path class="cls-6" d="M8.85,95.56c-1.06-5.91-3.8-11.34-4.86-17.24-.48-2.68-1.01-5.29-1.68-7.93s-1.47-5.64-1.02-8.44c.37-2.24,2.59-3.24,4.5-4.03s4.1-1.44,6.21-1.9c6.52-1.43,13.3-1.93,19.94-2.51,3.09-.27,6.39-.91,9.5-.6s5.44,2.33,7.19,4.77c3.75,5.23,6.37,10.89,8.43,16.97,.79,2.34,1.59,4.68,2.35,7.03,.69,2.13,1.41,4.39,1.48,6.64,.03,.81,.03,1.77-.65,2.32-.74,.6-1.89,.76-2.8,.88-2.21,.29-4.46,.15-6.68,0-6.79-.44-13.49,.47-20.13,1.86-3.85,.8-7.65,1.67-11.54,2.3-1.57,.26-3.05,.65-4.52,1.22-1.37,.53-3.17,1.33-4.42,.17-.39-.36-1.44,.71-1.06,1.06,1.95,1.81,4.91-.18,6.98-.77,1.91-.54,3.89-.68,5.83-1.03s3.8-.84,5.69-1.26c6.86-1.52,14.03-2.91,21.08-2.47,2.32,.14,4.64,.35,6.96,.2,1.89-.12,4.08-.46,5.44-1.92,1.25-1.35,1.08-3.32,.81-5.01-.37-2.33-1.13-4.59-1.89-6.82-2.19-6.42-4.1-12.94-7.83-18.68-1.66-2.56-3.18-5.36-5.76-7.12s-5.58-1.72-8.63-1.42c-7.54,.74-15.1,1.25-22.58,2.51-4.38,.74-9.52,1.77-13.02,4.69C.12,60.76-.16,63.08,.07,65.63c.29,3.26,1.34,6.38,2.06,9.55,.4,1.75,.57,3.54,.95,5.29s.92,3.56,1.51,5.3c1.19,3.53,2.44,6.99,3.1,10.67,.09,.5,1.25-.37,1.16-.88h0Z"/><path class="cls-6" d="M63.83,84.56c1.45,.26,2.89,.66,4.31,1.07,1.77,.52,3.73,1.04,5.27,2.08,.24,.16,.5,.34,.67,.58,.11,.15,.13,.36,.14,.38-.03-.08,.09-.12,.08-.11-.12,.07-.1,.08-.23,.16-.29,.17-.61,.28-.93,.38-1.9,.63-3.93,.86-5.9,1.14-1.1,.15-2.2,.29-3.3,.48-.72,.12-1.49,.22-2.17,.51-.3,.13-.67,.4-.75,.75-.06,.26,.06,.51,.38,.38,.63-.27,1.34-.36,2.01-.47,1.06-.17,2.12-.31,3.19-.46,2.13-.3,4.35-.54,6.38-1.26,1-.36,3.19-1.52,2.21-2.88-.42-.59-1.19-.95-1.82-1.25-.96-.46-1.97-.82-2.99-1.15-1.85-.6-3.75-1.15-5.66-1.49-.5-.09-1.39,1.07-.88,1.16h0Z"/></g></g></g></g></svg>